<?xml version="1.0" encoding="UTF-8" standalone="no" ?>
<!DOCTYPE svg PUBLIC "-//W3C//DTD SVG 1.1//EN" "http://www.w3.org/Graphics/SVG/1.1/DTD/svg11.dtd">
<svg xmlns="http://www.w3.org/2000/svg" xmlns:xlink="http://www.w3.org/1999/xlink" version="1.1" width="500" height="500" viewBox="0 0 500 500" xml:space="preserve">
<desc>Created with Fabric.js 4.6.0</desc>
<defs>
</defs>
<g transform="matrix(-0.65 0.24 -0.24 -0.65 246.08 239.63)" id="1U6iRwa077bCTQOB5EzRm"  >
<g style="" vector-effect="non-scaling-stroke"   >
		<g transform="matrix(1 0 0 1 -170.2 194.43)" id="SeM-lF2_iXOnlWX7Gm3n4"  >
<path style="stroke: none; stroke-width: 1; stroke-dasharray: none; stroke-linecap: butt; stroke-dashoffset: 0; stroke-linejoin: miter; stroke-miterlimit: 4; fill: rgb(255,255,255); fill-rule: nonzero; opacity: 1;" vector-effect="non-scaling-stroke"  transform=" translate(-129.8, -494.43)" d="M 95.733 399.678 C 95.733 402.367 93.555 404.536 90.867 404.536 C 88.178 404.536 85.992 402.367 85.992 399.678 C 85.992 396.98199999999997 88.178 394.804 90.867 394.804 C 93.555 394.804 95.733 396.981 95.733 399.678 z M 116.819 394.804 C 114.139 394.804 111.953 396.98199999999997 111.953 399.678 C 111.953 402.367 114.13900000000001 404.536 116.819 404.536 C 119.50800000000001 404.536 121.694 402.367 121.694 399.678 C 121.694 396.981 119.508 394.804 116.819 394.804 z M 142.78 394.804 C 140.099 394.804 137.914 396.98199999999997 137.914 399.678 C 137.914 402.367 140.1 404.536 142.77999999999997 404.536 C 145.46799999999996 404.536 147.64699999999996 402.367 147.64699999999996 399.678 C 147.646 396.981 145.468 394.804 142.78 394.804 z M 168.741 394.804 C 166.06 394.804 163.87400000000002 396.98199999999997 163.87400000000002 399.678 C 163.87400000000002 402.367 166.06000000000003 404.536 168.741 404.536 C 171.437 404.536 173.60700000000003 402.367 173.60700000000003 399.678 C 173.607 396.981 171.437 394.804 168.741 394.804 z M 64.906 418.498 C 62.218 418.498 60.03900000000001 420.668 60.03900000000001 423.35699999999997 C 60.03900000000001 426.046 62.21800000000001 428.23199999999997 64.906 428.23199999999997 C 67.59400000000001 428.23199999999997 69.77300000000001 426.046 69.77300000000001 423.35699999999997 C 69.773 420.668 67.594 418.498 64.906 418.498 z M 90.867 418.498 C 88.178 418.498 85.992 420.668 85.992 423.35699999999997 C 85.992 426.046 88.178 428.23199999999997 90.867 428.23199999999997 C 93.555 428.23199999999997 95.733 426.046 95.733 423.35699999999997 C 95.733 420.668 93.555 418.498 90.867 418.498 z M 116.819 418.498 C 114.139 418.498 111.953 420.668 111.953 423.35699999999997 C 111.953 426.046 114.13900000000001 428.23199999999997 116.819 428.23199999999997 C 119.50800000000001 428.23199999999997 121.694 426.046 121.694 423.35699999999997 C 121.694 420.668 119.508 418.498 116.819 418.498 z M 142.78 418.498 C 140.453 418.498 138.504 420.135 138.029 422.32599999999996 C 137.956 422.659 137.914 423.003 137.914 423.35699999999997 C 137.914 426.046 140.1 428.23199999999997 142.77999999999997 428.23199999999997 C 144.91199999999998 428.23199999999997 146.70299999999997 426.847 147.36099999999996 424.93699999999995 C 147.53299999999996 424.43999999999994 147.64599999999996 423.91399999999993 147.64599999999996 423.35699999999997 C 147.646 420.668 145.468 418.498 142.78 418.498 z M 168.741 418.498 C 166.06 418.498 163.87400000000002 420.668 163.87400000000002 423.35699999999997 C 163.87400000000002 426.046 166.06000000000003 428.23199999999997 168.741 428.23199999999997 C 171.437 428.23199999999997 173.60700000000003 426.046 173.60700000000003 423.35699999999997 C 173.607 420.668 171.437 418.498 168.741 418.498 z M 194.701 418.498 C 192.021 418.498 189.83499999999998 420.668 189.83499999999998 423.35699999999997 C 189.83499999999998 426.046 192.021 428.23199999999997 194.70099999999996 428.23199999999997 C 197.38999999999996 428.23199999999997 199.56799999999996 426.046 199.56799999999996 423.35699999999997 C 199.567 420.668 197.39 418.498 194.701 418.498 z M 38.945 442.185 C 36.257 442.185 34.079 444.363 34.079 447.051 C 34.079 449.739 36.257 451.909 38.945 451.909 C 41.634 451.909 43.812 449.739 43.812 447.051 C 43.812 444.363 41.634 442.185 38.945 442.185 z M 64.906 442.185 C 62.315000000000005 442.185 60.21900000000001 444.213 60.069 446.766 C 60.063 446.863 60.04 446.954 60.04 447.05100000000004 C 60.04 449.73900000000003 62.219 451.90900000000005 64.907 451.90900000000005 C 65.192 451.90900000000005 65.467 451.87300000000005 65.738 451.826 C 68.028 451.43100000000004 69.774 449.45500000000004 69.774 447.05100000000004 C 69.773 444.363 67.594 442.185 64.906 442.185 z M 90.867 442.185 C 88.178 442.185 85.992 444.363 85.992 447.051 C 85.992 449.739 88.178 451.909 90.867 451.909 C 93.555 451.909 95.733 449.739 95.733 447.051 C 95.733 444.363 93.555 442.185 90.867 442.185 z M 116.819 442.185 C 114.139 442.185 111.953 444.363 111.953 447.051 C 111.953 449.739 114.13900000000001 451.909 116.819 451.909 C 119.50800000000001 451.909 121.694 449.739 121.694 447.051 C 121.694 444.363 119.508 442.185 116.819 442.185 z M 142.78 442.185 C 140.099 442.185 137.914 444.363 137.914 447.051 C 137.914 449.739 140.1 451.909 142.77999999999997 451.909 C 145.46799999999996 451.909 147.64699999999996 449.739 147.64699999999996 447.051 C 147.646 444.363 145.468 442.185 142.78 442.185 z M 168.741 442.185 C 166.06 442.185 163.87400000000002 444.363 163.87400000000002 447.051 C 163.87400000000002 449.739 166.06000000000003 451.909 168.741 451.909 C 171.437 451.909 173.60700000000003 449.739 173.60700000000003 447.051 C 173.607 444.363 171.437 442.185 168.741 442.185 z M 194.701 442.185 C 192.021 442.185 189.83499999999998 444.363 189.83499999999998 447.051 C 189.83499999999998 449.739 192.021 451.909 194.70099999999996 451.909 C 197.38999999999996 451.909 199.56799999999996 449.739 199.56799999999996 447.051 C 199.567 444.363 197.39 442.185 194.701 442.185 z M 220.662 451.91 C 223.351 451.91 225.52800000000002 449.74 225.52800000000002 447.052 C 225.52800000000002 446.97 225.508 446.89300000000003 225.50400000000002 446.81100000000004 C 225.37600000000003 444.237 223.26800000000003 442.18600000000004 220.662 442.18600000000004 C 218.983 442.18600000000004 217.50400000000002 443.035 216.63 444.32700000000006 C 216.103 445.1050000000001 215.795 446.04300000000006 215.795 447.05300000000005 C 215.795 449.74 217.973 451.91 220.662 451.91 z M 38.945 465.864 C 36.257 465.864 34.079 468.051 34.079 470.738 C 34.079 473.427 36.257 475.604 38.945 475.604 C 41.634 475.604 43.812 473.42699999999996 43.812 470.738 C 43.812 468.051 41.634 465.864 38.945 465.864 z M 64.906 465.864 C 62.218 465.864 60.03900000000001 468.051 60.03900000000001 470.738 C 60.03900000000001 473.427 62.21800000000001 475.604 64.906 475.604 C 67.59400000000001 475.604 69.77300000000001 473.42699999999996 69.77300000000001 470.738 C 69.773 468.051 67.594 465.864 64.906 465.864 z M 90.867 465.864 C 89.744 465.864 88.721 466.26 87.896 466.90099999999995 C 86.747 467.7939999999999 85.992 469.17299999999994 85.992 470.73799999999994 C 85.992 473.42699999999996 88.178 475.6039999999999 90.867 475.6039999999999 C 93.555 475.6039999999999 95.733 473.4269999999999 95.733 470.73799999999994 C 95.733 470.6619999999999 95.714 470.5899999999999 95.711 470.51399999999995 C 95.591 467.933 93.479 465.864 90.867 465.864 z M 116.819 465.864 C 115.376 465.864 114.09 466.51 113.197 467.51599999999996 C 112.433 468.376 111.953 469.498 111.953 470.73799999999994 C 111.953 473.42699999999996 114.13900000000001 475.6039999999999 116.819 475.6039999999999 C 119.50800000000001 475.6039999999999 121.694 473.4269999999999 121.694 470.73799999999994 C 121.694 470.03999999999996 121.541 469.37899999999996 121.275 468.77699999999993 C 120.518 467.065 118.809 465.864 116.819 465.864 z M 142.78 465.864 C 140.636 465.864 138.829 467.272 138.184 469.20799999999997 C 138.022 469.69199999999995 137.914 470.2 137.914 470.73799999999994 C 137.914 473.42699999999996 140.1 475.6039999999999 142.77999999999997 475.6039999999999 C 145.46799999999996 475.6039999999999 147.64699999999996 473.4269999999999 147.64699999999996 470.73799999999994 C 147.64699999999996 469.94499999999994 147.43899999999996 469.20599999999996 147.10199999999998 468.54299999999995 C 146.298 466.961 144.675 465.864 142.78 465.864 z M 168.741 465.864 C 166.06 465.864 163.87400000000002 468.051 163.87400000000002 470.738 C 163.87400000000002 472.198 164.53100000000003 473.49 165.54800000000003 474.381 C 166.40500000000003 475.133 167.51500000000004 475.604 168.74100000000004 475.604 C 170.49000000000004 475.604 172.00600000000003 474.68 172.86400000000003 473.303 C 173.32800000000003 472.557 173.60800000000003 471.682 173.60800000000003 470.738 C 173.607 468.051 171.437 465.864 168.741 465.864 z M 194.701 465.864 C 192.021 465.864 189.83499999999998 468.051 189.83499999999998 470.738 C 189.83499999999998 470.887 189.86599999999999 471.028 189.878 471.173 C 190.10199999999998 473.65500000000003 192.16899999999998 475.605 194.701 475.605 C 197.39 475.605 199.56799999999998 473.428 199.56799999999998 470.73900000000003 C 199.56799999999998 470.656 199.547 470.579 199.54399999999998 470.497 C 199.414 467.923 197.306 465.864 194.701 465.864 z M 220.662 465.864 C 217.973 465.864 215.79500000000002 468.051 215.79500000000002 470.738 C 215.79500000000002 470.743 215.79700000000003 470.748 215.79700000000003 470.752 C 215.80400000000003 473.435 217.97800000000004 475.604 220.66200000000003 475.604 C 222.93900000000002 475.604 224.83500000000004 474.036 225.36700000000005 471.923 C 225.46300000000005 471.541 225.52900000000005 471.149 225.52900000000005 470.738 C 225.528 468.051 223.35 465.864 220.662 465.864 z M 38.945 489.559 C 36.257 489.559 34.079 491.738 34.079 494.42600000000004 C 34.079 497.11400000000003 36.257 499.29200000000003 38.945 499.29200000000003 C 41.634 499.29200000000003 43.812 497.11400000000003 43.812 494.42600000000004 C 43.812 491.737 41.634 489.559 38.945 489.559 z M 64.906 489.559 C 62.218 489.559 60.03900000000001 491.738 60.03900000000001 494.42600000000004 C 60.03900000000001 497.11400000000003 62.21800000000001 499.29200000000003 64.906 499.29200000000003 C 67.59400000000001 499.29200000000003 69.77300000000001 497.11400000000003 69.77300000000001 494.42600000000004 C 69.773 491.737 67.594 489.559 64.906 489.559 z M 90.867 489.559 C 88.178 489.559 85.992 491.738 85.992 494.42600000000004 C 85.992 497.11400000000003 88.178 499.29200000000003 90.867 499.29200000000003 C 93.555 499.29200000000003 95.733 497.11400000000003 95.733 494.42600000000004 C 95.733 491.737 93.555 489.559 90.867 489.559 z M 116.819 489.559 C 114.139 489.559 111.953 491.738 111.953 494.42600000000004 C 111.953 497.11400000000003 114.13900000000001 499.29200000000003 116.819 499.29200000000003 C 119.50800000000001 499.29200000000003 121.694 497.11400000000003 121.694 494.42600000000004 C 121.694 491.737 119.508 489.559 116.819 489.559 z M 142.78 489.559 C 140.099 489.559 137.914 491.738 137.914 494.42600000000004 C 137.914 497.11400000000003 140.1 499.29200000000003 142.77999999999997 499.29200000000003 C 145.46799999999996 499.29200000000003 147.64699999999996 497.11400000000003 147.64699999999996 494.42600000000004 C 147.646 491.737 145.468 489.559 142.78 489.559 z M 168.741 489.559 C 166.06 489.559 163.87400000000002 491.738 163.87400000000002 494.42600000000004 C 163.87400000000002 497.11400000000003 166.06000000000003 499.29200000000003 168.741 499.29200000000003 C 171.437 499.29200000000003 173.60700000000003 497.11400000000003 173.60700000000003 494.42600000000004 C 173.607 491.737 171.437 489.559 168.741 489.559 z M 194.701 489.559 C 192.021 489.559 189.83499999999998 491.738 189.83499999999998 494.42600000000004 C 189.83499999999998 497.11400000000003 192.021 499.29200000000003 194.70099999999996 499.29200000000003 C 197.38999999999996 499.29200000000003 199.56799999999996 497.11400000000003 199.56799999999996 494.42600000000004 C 199.567 491.737 197.39 489.559 194.701 489.559 z M 220.662 489.559 C 217.973 489.559 215.79500000000002 491.738 215.79500000000002 494.42600000000004 C 215.79500000000002 497.11400000000003 217.973 499.29200000000003 220.662 499.29200000000003 C 223.351 499.29200000000003 225.52800000000002 497.11400000000003 225.52800000000002 494.42600000000004 C 225.528 491.737 223.35 489.559 220.662 489.559 z M 38.945 513.246 C 37.638 513.246 36.458 513.769 35.584 514.607 C 34.660000000000004 515.4939999999999 34.079 516.7339999999999 34.079 518.112 C 34.079 520.8 36.257 522.987 38.945 522.987 C 38.989 522.987 39.029 522.9739999999999 39.073 522.973 C 41.701 522.904 43.812 520.756 43.812 518.112 C 43.812 515.432 41.634 513.246 38.945 513.246 z M 64.906 513.246 C 62.218 513.246 60.03900000000001 515.4309999999999 60.03900000000001 518.112 C 60.03900000000001 520.8 62.21800000000001 522.987 64.906 522.987 C 67.59400000000001 522.987 69.77300000000001 520.8 69.77300000000001 518.112 C 69.773 515.432 67.594 513.246 64.906 513.246 z M 90.867 513.246 C 88.178 513.246 85.992 515.4309999999999 85.992 518.112 C 85.992 520.8 88.178 522.987 90.867 522.987 C 93.555 522.987 95.733 520.8 95.733 518.112 C 95.733 515.432 93.555 513.246 90.867 513.246 z M 116.819 513.246 C 114.139 513.246 111.953 515.4309999999999 111.953 518.112 C 111.953 520.8 114.13900000000001 522.987 116.819 522.987 C 119.50800000000001 522.987 121.694 520.8 121.694 518.112 C 121.694 515.432 119.508 513.246 116.819 513.246 z M 142.78 513.246 C 140.099 513.246 137.914 515.4309999999999 137.914 518.112 C 137.914 520.8 140.1 522.987 142.77999999999997 522.987 C 145.46799999999996 522.987 147.64699999999996 520.8 147.64699999999996 518.112 C 147.646 515.432 145.468 513.246 142.78 513.246 z M 168.741 513.246 C 166.06 513.246 163.87400000000002 515.4309999999999 163.87400000000002 518.112 C 163.87400000000002 520.8 166.06000000000003 522.987 168.741 522.987 C 171.437 522.987 173.60700000000003 520.8 173.60700000000003 518.112 C 173.607 515.432 171.437 513.246 168.741 513.246 z M 194.701 513.246 C 192.021 513.246 189.83499999999998 515.4309999999999 189.83499999999998 518.112 C 189.83499999999998 520.8 192.021 522.987 194.70099999999996 522.987 C 197.38999999999996 522.987 199.56799999999996 520.8 199.56799999999996 518.112 C 199.567 515.432 197.39 513.246 194.701 513.246 z M 220.662 513.246 C 217.973 513.246 215.79500000000002 515.4309999999999 215.79500000000002 518.112 C 215.79500000000002 520.8 217.973 522.987 220.662 522.987 C 223.351 522.987 225.52800000000002 520.8 225.52800000000002 518.112 C 225.528 515.432 223.35 513.246 220.662 513.246 z M 38.945 536.933 C 36.257 536.933 34.079 539.111 34.079 541.799 C 34.079 544.4879999999999 36.257 546.674 38.945 546.674 C 41.634 546.674 43.812 544.4879999999999 43.812 541.799 C 43.812 539.11 41.634 536.933 38.945 536.933 z M 64.906 536.933 C 62.218 536.933 60.03900000000001 539.111 60.03900000000001 541.799 C 60.03900000000001 544.4879999999999 62.21800000000001 546.674 64.906 546.674 C 67.59400000000001 546.674 69.77300000000001 544.4879999999999 69.77300000000001 541.799 C 69.773 539.11 67.594 536.933 64.906 536.933 z M 90.867 536.933 C 88.178 536.933 85.992 539.111 85.992 541.799 C 85.992 544.4879999999999 88.178 546.674 90.867 546.674 C 93.555 546.674 95.733 544.4879999999999 95.733 541.799 C 95.733 539.11 93.555 536.933 90.867 536.933 z M 116.819 536.933 C 114.139 536.933 111.953 539.111 111.953 541.799 C 111.953 544.4879999999999 114.13900000000001 546.674 116.819 546.674 C 119.50800000000001 546.674 121.694 544.4879999999999 121.694 541.799 C 121.694 539.11 119.508 536.933 116.819 536.933 z M 142.78 536.933 C 140.099 536.933 137.914 539.111 137.914 541.799 C 137.914 544.4879999999999 140.1 546.674 142.77999999999997 546.674 C 145.46799999999996 546.674 147.64699999999996 544.4879999999999 147.64699999999996 541.799 C 147.646 539.11 145.468 536.933 142.78 536.933 z M 168.741 536.933 C 166.06 536.933 163.87400000000002 539.111 163.87400000000002 541.799 C 163.87400000000002 544.4879999999999 166.06000000000003 546.674 168.741 546.674 C 171.437 546.674 173.60700000000003 544.4879999999999 173.60700000000003 541.799 C 173.607 539.11 171.437 536.933 168.741 536.933 z M 194.701 536.933 C 192.021 536.933 189.83499999999998 539.111 189.83499999999998 541.799 C 189.83499999999998 544.4879999999999 192.021 546.674 194.70099999999996 546.674 C 197.38999999999996 546.674 199.56799999999996 544.4879999999999 199.56799999999996 541.799 C 199.567 539.11 197.39 536.933 194.701 536.933 z M 220.662 536.933 C 217.973 536.933 215.79500000000002 539.111 215.79500000000002 541.799 C 215.79500000000002 542.787 216.09400000000002 543.7049999999999 216.59900000000002 544.4739999999999 C 217.46900000000002 545.7959999999999 218.961 546.674 220.662 546.674 C 223.351 546.674 225.52800000000002 544.4879999999999 225.52800000000002 541.799 C 225.52800000000002 540.709 225.157 539.7139999999999 224.55300000000003 538.9019999999999 C 223.666 537.713 222.26 536.933 220.662 536.933 z M 64.906 560.62 C 62.218 560.62 60.03900000000001 562.806 60.03900000000001 565.494 C 60.03900000000001 568.183 62.21800000000001 570.36 64.906 570.36 C 67.59400000000001 570.36 69.77300000000001 568.182 69.77300000000001 565.494 C 69.773 562.806 67.594 560.62 64.906 560.62 z M 90.867 560.62 C 88.178 560.62 85.992 562.806 85.992 565.494 C 85.992 568.183 88.178 570.36 90.867 570.36 C 93.555 570.36 95.733 568.182 95.733 565.494 C 95.733 562.806 93.555 560.62 90.867 560.62 z M 116.819 560.62 C 114.139 560.62 111.953 562.806 111.953 565.494 C 111.953 568.183 114.13900000000001 570.36 116.819 570.36 C 119.50800000000001 570.36 121.694 568.182 121.694 565.494 C 121.694 562.806 119.508 560.62 116.819 560.62 z M 142.78 560.62 C 140.099 560.62 137.914 562.806 137.914 565.494 C 137.914 568.183 140.1 570.36 142.77999999999997 570.36 C 145.46799999999996 570.36 147.64699999999996 568.182 147.64699999999996 565.494 C 147.646 562.806 145.468 560.62 142.78 560.62 z M 168.741 560.62 C 166.06 560.62 163.87400000000002 562.806 163.87400000000002 565.494 C 163.87400000000002 568.183 166.06000000000003 570.36 168.741 570.36 C 171.437 570.36 173.60700000000003 568.182 173.60700000000003 565.494 C 173.607 562.806 171.437 560.62 168.741 560.62 z M 194.701 560.62 C 192.021 560.62 189.83499999999998 562.806 189.83499999999998 565.494 C 189.83499999999998 568.183 192.021 570.36 194.70099999999996 570.36 C 197.38999999999996 570.36 199.56799999999996 568.182 199.56799999999996 565.494 C 199.567 562.806 197.39 560.62 194.701 560.62 z M 90.867 584.315 C 88.178 584.315 85.992 586.485 85.992 589.173 C 85.992 591.869 88.178 594.047 90.867 594.047 C 93.555 594.047 95.733 591.869 95.733 589.173 C 95.733 586.484 93.555 584.315 90.867 584.315 z M 116.819 584.315 C 114.139 584.315 111.953 586.485 111.953 589.173 C 111.953 591.869 114.13900000000001 594.047 116.819 594.047 C 119.50800000000001 594.047 121.694 591.869 121.694 589.173 C 121.694 586.484 119.508 584.315 116.819 584.315 z M 142.78 584.315 C 140.099 584.315 137.914 586.485 137.914 589.173 C 137.914 591.869 140.1 594.047 142.77999999999997 594.047 C 145.46799999999996 594.047 147.64699999999996 591.869 147.64699999999996 589.173 C 147.646 586.484 145.468 584.315 142.78 584.315 z M 168.741 584.315 C 166.06 584.315 163.87400000000002 586.485 163.87400000000002 589.173 C 163.87400000000002 591.869 166.06000000000003 594.047 168.741 594.047 C 171.437 594.047 173.60700000000003 591.869 173.60700000000003 589.173 C 173.607 586.484 171.437 584.315 168.741 584.315 z" stroke-linecap="round" />
</g>
		<g transform="matrix(1 0 0 1 0 25.86)" id="KZ8AK_9waoIcTKlERDlT4"  >
<path style="stroke: none; stroke-width: 1; stroke-dasharray: none; stroke-linecap: butt; stroke-dashoffset: 0; stroke-linejoin: miter; stroke-miterlimit: 4; fill: rgb(59,171,255); fill-rule: nonzero; opacity: 1;" vector-effect="non-scaling-stroke"  transform=" translate(-300, -325.86)" d="M 596.435 311.656 C 594.813 324.416 592.391 335.629 589.2489999999999 345.232 C 577.5199999999999 381.059 555.7029999999999 394.38500000000005 527.4739999999999 381.16100000000006 C 514.4209999999999 375.03400000000005 497.5399999999999 375.2180000000001 487.98299999999995 382.19000000000005 C 470.7169999999999 394.81100000000004 465.102 423.32500000000005 461.38399999999996 442.19300000000004 C 458.89399999999995 454.87500000000006 455.621 466.44200000000006 451.65899999999993 476.86400000000003 C 435.9989999999999 518.0590000000001 409.36599999999993 541.0250000000001 375.80999999999995 541.0250000000001 C 366.05699999999996 541.0250000000001 355.74399999999997 539.1370000000001 344.91499999999996 535.3880000000001 C 326.97299999999996 529.1740000000001 307.61499999999995 517.8410000000001 287.04699999999997 501.47700000000015 C 286.323 500.90200000000016 285.602 500.33900000000017 284.881 499.78000000000014 C 287.563 498.39100000000013 290.27599999999995 497.05200000000013 293.02 495.7740000000001 C 316.662 514.4520000000001 338.407 526.1370000000002 357.92199999999997 530.6820000000001 C 364.11199999999997 532.1240000000001 370.07899999999995 532.8560000000001 375.80999999999995 532.8560000000001 C 398.86699999999996 532.8560000000001 415.42999999999995 521.3640000000001 427.31399999999996 505.5800000000001 C 427.78299999999996 504.9550000000001 428.246 504.3250000000001 428.70199999999994 503.6870000000001 C 434.40099999999995 495.7110000000001 438.97299999999996 486.75600000000014 442.62999999999994 477.6850000000001 C 447.8639999999999 464.7040000000001 451.2339999999999 451.49400000000014 453.37299999999993 440.6130000000001 C 457.3299999999999 420.5010000000001 463.31299999999993 390.0960000000001 483.16399999999993 375.60000000000014 C 489.5609999999999 370.92400000000015 497.8429999999999 368.4520000000001 507.11299999999994 368.4520000000001 C 515.1859999999999 368.4520000000001 523.6429999999999 370.3350000000001 530.952 373.7580000000001 C 537.111 376.6460000000001 542.854 378.1130000000001 548.025 378.1130000000001 C 567.573 378.1130000000001 578.037 356.90800000000013 583.621 335.5770000000001 C 585.9209999999999 326.7880000000001 587.393 317.9770000000001 588.3299999999999 310.61900000000014 C 592.0959999999999 280.9490000000001 592.8059999999999 256.7350000000001 590.5479999999999 234.41300000000012 C 589.3029999999999 222.03000000000011 587.0619999999999 211.85000000000014 583.6869999999999 203.29800000000012 C 579.9179999999999 193.74600000000012 574.8419999999999 184.0280000000001 568.5219999999999 174.8750000000001 C 570.3019999999999 172.3200000000001 571.751 169.6540000000001 572.891 166.9140000000001 C 580.689 177.5560000000001 586.837 189.0370000000001 591.283 200.2990000000001 C 594.945 209.5610000000001 597.362 220.45100000000008 598.67 233.5910000000001 C 600.999 256.544 600.28 281.348 596.435 311.656 z M 361.688 176.684 C 376.417 170.95499999999998 390.354 163.265 403.837 155.82999999999998 C 409.799 152.54199999999997 415.883 149.195 422.04499999999996 146.01 C 426.52599999999995 143.69199999999998 431.04699999999997 141.456 435.597 139.403 C 445.597 134.88899999999998 455.466 131.678 465.111 129.769 C 468.037 126.334 471.34499999999997 123.08000000000001 474.92199999999997 120.06200000000001 C 461.068 121.42600000000002 446.751 125.40100000000001 432.23199999999997 131.952 C 428.17199999999997 133.784 424.155 135.745 420.179 137.775 C 413.284 141.296 406.517 145.02800000000002 399.88899999999995 148.681 C 386.645 155.989 372.93899999999996 163.544 358.73799999999994 169.073 C 346.73199999999997 173.732 335.41099999999994 175.607 324.1449999999999 174.786 C 302.39699999999993 173.222 284.3739999999999 160.289 266.9429999999999 147.78 L 264.78899999999993 146.24 C 241.64499999999992 129.67700000000002 220.43099999999993 119.81700000000001 196.01899999999995 114.26400000000001 C 179.84799999999996 110.58600000000001 162.49499999999995 109.73200000000001 145.19899999999996 111.81500000000001 C 143.34599999999995 112.037 141.49199999999996 112.32400000000001 139.63599999999997 112.641 C 119.60299999999997 116.066 99.43299999999996 125.04100000000001 80.96799999999996 138.812 C 38.37299999999996 170.55700000000002 7.8649999999999665 226.05200000000002 1.338999999999956 283.63800000000003 C -2.871000000000044 320.744 2.926999999999956 356.76200000000006 17.817999999999955 388.677 C 24.825999999999954 403.697 33.839999999999954 417.812 44.786999999999956 430.69800000000004 C 45.41399999999996 431.43000000000006 46.04599999999996 432.16 46.68299999999996 432.88700000000006 C 47.08399999999996 429.21600000000007 47.525999999999954 425.51300000000003 48.01199999999996 421.77700000000004 C 40.405999999999956 412.338 33.85699999999996 402.24300000000005 28.379999999999956 391.63300000000004 C 11.8 359.523 5.132 322.647 9.442 284.555 C 15.729 229.14000000000001 45.008 175.806 85.84800000000001 145.354 C 101.37100000000001 133.78 118.11000000000001 125.80000000000001 134.835 121.92000000000002 C 138.619 121.04200000000002 142.40200000000002 120.37200000000001 146.17000000000002 119.92000000000002 C 162.525 117.98200000000001 178.94400000000002 118.76300000000002 194.214 122.22600000000001 C 217.51 127.52300000000001 237.814 136.977 260.032 152.877 L 262.179 154.417 C 280.53599999999994 167.589 299.50899999999996 181.207 323.554 182.938 C 335.904 183.84 348.701 181.733 361.688 176.684 z" stroke-linecap="round" />
</g>
		<g transform="matrix(1 0 0 1 0.89 -54.58)" id="uO9MTmY3-6waMU_h_CtWS"  >
<path style="stroke: none; stroke-width: 1; stroke-dasharray: none; stroke-linecap: butt; stroke-dashoffset: 0; stroke-linejoin: miter; stroke-miterlimit: 4; fill: rgb(53,63,73); fill-rule: nonzero; opacity: 1;" vector-effect="non-scaling-stroke"  transform=" translate(-300.89, -245.42)" d="M 461.551 72.602 L 448.881 85.272 L 461.551 97.941 C 463.147 99.537 463.147 102.122 461.551 103.717 C 460.753 104.514 459.70799999999997 104.913 458.663 104.913 C 457.618 104.913 456.57300000000004 104.514 455.774 103.717 L 443.105 91.047 L 430.435 103.717 C 429.638 104.514 428.593 104.913 427.548 104.913 C 426.502 104.913 425.457 104.514 424.659 103.717 C 423.063 102.121 423.063 99.536 424.659 97.941 L 437.328 85.272 L 424.659 72.602 C 423.063 71.007 423.063 68.421 424.659 66.827 C 426.255 65.231 428.84 65.231 430.43399999999997 66.827 L 443.104 79.496 L 455.77299999999997 66.827 C 457.36899999999997 65.231 459.953 65.231 461.549 66.827 C 463.146 68.421 463.146 71.007 461.551 72.602 z M 522.256 477.919 L 510.47999999999996 466.144 L 497.06899999999996 452.733 C 495.47299999999996 451.137 492.88899999999995 451.137 491.294 452.733 C 489.698 454.32800000000003 489.698 456.914 491.294 458.509 L 501.4 468.615 L 516.48 483.694 C 517.278 484.493 518.323 484.891 519.368 484.891 C 520.4140000000001 484.891 521.4590000000001 484.493 522.2570000000001 483.694 C 523.852 482.1 523.852 479.515 522.256 477.919 z M 223.614 31.107 C 226.198 36.658 227.65 42.837 227.65 49.354 C 227.65 73.288 208.175 92.75399999999999 184.25 92.75399999999999 C 174.595 92.75399999999999 165.667 89.58099999999999 158.449 84.22699999999999 C 147.78 76.31299999999999 140.84900000000002 63.62899999999999 140.84900000000002 49.35399999999999 C 140.84900000000002 25.418999999999993 160.323 5.952999999999989 184.25000000000003 5.952999999999989 C 201.662 5.953 216.707 16.269 223.614 31.107 z M 219.481 49.354 C 219.481 44.231 218.373 39.366 216.399 34.97 C 210.885 22.695999999999998 198.554 14.122 184.25 14.122 C 164.823 14.122 149.019 29.927 149.019 49.353 C 149.019 61.098 154.802 71.512 163.66500000000002 77.917 C 169.46 82.105 176.56900000000002 84.583 184.25000000000003 84.583 C 203.676 84.585 219.481 68.78 219.481 49.354 z M 78.325 231.214 L 85.994 258.551 L 94.991 290.618 L 140.54500000000002 247.696 L 93.36100000000002 235.196 L 78.325 231.214 z" stroke-linecap="round" />
</g>
		<g transform="matrix(1 0 0 1 20.09 -4.73)" id="qkRkowkk44R1uF7XANJs7"  >
<path style="stroke: none; stroke-width: 1; stroke-dasharray: none; stroke-linecap: butt; stroke-dashoffset: 0; stroke-linejoin: miter; stroke-miterlimit: 4; fill: rgb(255,207,57); fill-rule: nonzero; opacity: 1;" vector-effect="non-scaling-stroke"  transform=" translate(-320.09, -295.27)" d="M 184.25 84.585 C 176.569 84.585 169.46 82.107 163.665 77.919 C 180.414 58.522 198.993 44.739999999999995 216.399 34.971 C 218.373 39.367 219.481 44.232 219.481 49.355 C 219.481 68.78 203.676 84.585 184.25 84.585 z M 196.018 114.264 C 220.431 119.817 241.644 129.677 264.788 146.24 L 266.942 147.78 C 284.374 160.289 302.396 173.221 324.144 174.786 C 335.41 175.607 346.731 173.732 358.737 169.073 C 372.93800000000005 163.54500000000002 386.644 155.989 399.88800000000003 148.681 C 406.516 145.02800000000002 413.283 141.29500000000002 420.17800000000005 137.775 C 403.393 63.657 386.578 -5.312 282.635 11.809 C 282.635 11.809 256.022 14.581999999999999 223.61399999999998 31.107999999999997 C 226.19799999999998 36.659 227.64999999999998 42.837999999999994 227.64999999999998 49.355 C 227.64999999999998 73.289 208.17499999999998 92.755 184.24999999999997 92.755 C 174.59499999999997 92.755 165.66699999999997 89.582 158.44899999999998 84.228 C 151.743 92.685 145.40499999999997 102.124 139.634 112.64099999999999 C 141.48999999999998 112.324 143.344 112.03699999999999 145.19699999999997 111.815 C 162.494 109.731 179.846 110.586 196.018 114.264 z M 589.249 345.232 C 577.52 381.059 555.703 394.38500000000005 527.474 381.16100000000006 C 514.421 375.03400000000005 497.54 375.2180000000001 487.98300000000006 382.19000000000005 C 470.71700000000004 394.81100000000004 465.1020000000001 423.32500000000005 461.38400000000007 442.19300000000004 C 458.89400000000006 454.87500000000006 455.6210000000001 466.44200000000006 451.65900000000005 476.86400000000003 C 469.32900000000006 475.1 486.03200000000004 472.47900000000004 501.39900000000006 468.615 L 491.29300000000006 458.509 C 489.69700000000006 456.913 489.69700000000006 454.327 491.29300000000006 452.733 C 492.88900000000007 451.137 495.47300000000007 451.137 497.06800000000004 452.733 L 510.47900000000004 466.144 C 552.529 453.718 583.2130000000001 430.65 594.0340000000001 388.079 C 598.015 372.429 595.742 358.342 589.249 345.232 z M 453.373 440.613 C 451.234 451.494 447.864 464.704 442.63 477.685 C 416.312 479.86 388.066 480.344 359.049 480.344 C 354.98499999999996 480.344 351.00199999999995 480.519 347.09099999999995 480.843 C 327.42799999999994 482.478 309.62799999999993 488.03900000000004 293.02099999999996 495.774 C 290.27599999999995 497.052 287.56399999999996 498.391 284.88199999999995 499.78 C 263.405 510.89799999999997 243.81499999999994 525.298 224.55299999999994 538.9019999999999 C 223.66599999999994 537.713 222.26099999999994 536.9319999999999 220.66199999999995 536.9319999999999 C 217.97299999999996 536.9319999999999 215.79499999999996 539.1099999999999 215.79499999999996 541.7979999999999 C 215.79499999999996 542.786 216.09399999999997 543.7039999999998 216.59899999999996 544.4729999999998 C 178.36599999999996 570.9659999999999 140.57399999999996 592.0589999999999 90.88999999999996 575.4969999999998 C 47.72399999999996 561.1069999999999 38.96899999999996 503.5799999999998 46.680999999999955 432.88599999999985 C 47.08199999999996 429.21499999999986 47.52399999999996 425.51199999999983 48.009999999999955 421.77599999999984 C 49.02099999999996 414.01399999999984 50.214999999999954 406.1159999999998 51.56399999999996 398.1229999999998 C 59.274999999999956 352.4429999999998 72.14899999999996 303.5849999999998 85.99499999999995 258.5509999999998 L 94.99199999999995 290.6179999999998 L 140.54599999999994 247.69599999999983 L 93.36199999999994 235.19599999999983 C 105.23199999999994 198.48699999999982 117.26499999999993 165.38199999999983 126.93599999999994 140.11199999999982 C 129.37799999999993 133.73299999999983 132.02699999999993 127.68599999999982 134.83599999999993 121.91999999999982 C 138.61999999999992 121.04199999999982 142.40299999999993 120.37199999999982 146.17099999999994 119.91999999999982 C 162.52599999999993 117.98199999999981 178.94499999999994 118.76299999999982 194.21499999999992 122.22599999999981 C 217.5109999999999 127.52299999999981 237.8149999999999 136.9769999999998 260.0329999999999 152.8769999999998 L 262.1799999999999 154.4169999999998 C 280.5369999999999 167.5889999999998 299.5099999999999 181.2069999999998 323.5549999999999 182.93799999999982 C 335.9049999999999 183.83899999999983 348.7019999999999 181.7329999999998 361.6889999999999 176.68299999999982 C 376.4179999999999 170.9539999999998 390.3549999999999 163.2639999999998 403.8379999999999 155.82899999999984 C 409.7999999999999 152.54099999999983 415.8839999999999 149.19399999999985 422.04599999999994 146.00899999999984 C 424.44499999999994 156.56999999999985 426.90899999999993 167.17599999999985 429.68699999999995 177.59399999999985 C 447.453 244.20399999999984 548.13 282.6059999999999 583.622 335.5769999999999 C 578.038 356.9079999999999 567.574 378.1129999999999 548.026 378.1129999999999 C 542.8549999999999 378.1129999999999 537.112 376.64499999999987 530.953 373.75799999999987 C 523.645 370.33499999999987 515.187 368.4519999999999 507.114 368.4519999999999 C 497.84299999999996 368.4519999999999 489.56199999999995 370.9249999999999 483.16499999999996 375.5999999999999 C 463.313 390.097 457.33 420.501 453.373 440.613 z M 189.834 423.357 C 189.834 426.04600000000005 192.02 428.232 194.7 428.232 C 197.38899999999998 428.232 199.56699999999998 426.04600000000005 199.56699999999998 423.357 C 199.56699999999998 420.668 197.38899999999998 418.49800000000005 194.7 418.49800000000005 C 192.02 418.498 189.834 420.668 189.834 423.357 z M 173.607 470.738 C 173.607 468.05 171.437 465.864 168.74099999999999 465.864 C 166.05999999999997 465.864 163.874 468.051 163.874 470.738 C 163.874 472.198 164.531 473.49 165.548 474.381 C 166.405 475.133 167.51500000000001 475.604 168.741 475.604 C 170.49 475.604 172.006 474.68 172.864 473.303 C 173.327 472.558 173.607 471.683 173.607 470.738 z M 121.275 468.777 C 120.518 467.065 118.80900000000001 465.864 116.819 465.864 C 115.376 465.864 114.09 466.51 113.197 467.51599999999996 C 112.433 468.376 111.953 469.498 111.953 470.73799999999994 C 111.953 473.42699999999996 114.13900000000001 475.6039999999999 116.819 475.6039999999999 C 119.50800000000001 475.6039999999999 121.694 473.4269999999999 121.694 470.73799999999994 C 121.694 470.04 121.54 469.379 121.275 468.777 z M 69.773 447.052 C 69.773 444.36400000000003 67.594 442.18600000000004 64.90599999999999 442.18600000000004 C 62.31499999999999 442.18600000000004 60.218999999999994 444.21400000000006 60.06899999999999 446.76700000000005 C 60.06299999999999 446.86400000000003 60.039999999999985 446.95500000000004 60.039999999999985 447.0520000000001 C 60.039999999999985 449.74000000000007 62.21899999999999 451.9100000000001 64.90699999999998 451.9100000000001 C 65.19199999999998 451.9100000000001 65.46699999999998 451.8740000000001 65.73799999999999 451.82700000000006 C 68.027 451.432 69.773 449.456 69.773 447.052 z M 64.906 428.232 C 67.59400000000001 428.232 69.77300000000001 426.04600000000005 69.77300000000001 423.357 C 69.77300000000001 420.668 67.59400000000001 418.49800000000005 64.906 418.49800000000005 C 62.218 418.49800000000005 60.03900000000001 420.66800000000006 60.03900000000001 423.357 C 60.039 426.046 62.218 428.232 64.906 428.232 z M 85.992 447.052 C 85.992 449.74 88.178 451.91 90.867 451.91 C 93.555 451.91 95.733 449.74 95.733 447.052 C 95.733 444.36400000000003 93.555 442.18600000000004 90.867 442.18600000000004 C 88.178 442.185 85.992 444.363 85.992 447.052 z M 90.867 428.232 C 93.555 428.232 95.733 426.04600000000005 95.733 423.357 C 95.733 420.668 93.555 418.49800000000005 90.867 418.49800000000005 C 88.178 418.49800000000005 85.992 420.66800000000006 85.992 423.357 C 85.992 426.046 88.178 428.232 90.867 428.232 z M 111.953 447.052 C 111.953 449.74 114.13900000000001 451.91 116.819 451.91 C 119.50800000000001 451.91 121.694 449.74 121.694 447.052 C 121.694 444.36400000000003 119.50800000000001 442.18600000000004 116.819 442.18600000000004 C 114.139 442.185 111.953 444.363 111.953 447.052 z M 116.819 428.232 C 119.50800000000001 428.232 121.694 426.04600000000005 121.694 423.357 C 121.694 420.668 119.50800000000001 418.49800000000005 116.819 418.49800000000005 C 114.139 418.49800000000005 111.953 420.66800000000006 111.953 423.357 C 111.953 426.046 114.139 428.232 116.819 428.232 z M 142.78 451.91 C 145.468 451.91 147.647 449.74 147.647 447.052 C 147.647 444.36400000000003 145.469 442.18600000000004 142.78 442.18600000000004 C 140.099 442.18600000000004 137.914 444.36400000000003 137.914 447.052 C 137.914 449.74 140.099 451.91 142.78 451.91 z M 138.184 469.208 C 138.022 469.692 137.914 470.20000000000005 137.914 470.738 C 137.914 473.427 140.1 475.604 142.77999999999997 475.604 C 145.46799999999996 475.604 147.64699999999996 473.42699999999996 147.64699999999996 470.738 C 147.64699999999996 469.945 147.43899999999996 469.206 147.10199999999998 468.543 C 146.29799999999997 466.961 144.67499999999998 465.86400000000003 142.77999999999997 465.86400000000003 C 140.636 465.864 138.829 467.272 138.184 469.208 z M 168.741 451.91 C 171.437 451.91 173.60700000000003 449.74 173.60700000000003 447.052 C 173.60700000000003 444.36400000000003 171.43700000000004 442.18600000000004 168.74100000000004 442.18600000000004 C 166.06000000000003 442.18600000000004 163.87400000000005 444.36400000000003 163.87400000000005 447.052 C 163.873 449.74 166.06 451.91 168.741 451.91 z M 194.701 451.91 C 197.39 451.91 199.56799999999998 449.74 199.56799999999998 447.052 C 199.56799999999998 444.36400000000003 197.39 442.18600000000004 194.701 442.18600000000004 C 192.021 442.18600000000004 189.83499999999998 444.36400000000003 189.83499999999998 447.052 C 189.834 449.74 192.02 451.91 194.701 451.91 z M 163.873 399.678 C 163.873 402.367 166.059 404.536 168.73999999999998 404.536 C 171.43599999999998 404.536 173.606 402.367 173.606 399.678 C 173.606 396.98199999999997 171.436 394.804 168.74 394.804 C 166.06 394.804 163.873 396.981 163.873 399.678 z M 163.873 423.357 C 163.873 426.04600000000005 166.059 428.232 168.73999999999998 428.232 C 171.43599999999998 428.232 173.606 426.04600000000005 173.606 423.357 C 173.606 420.668 171.436 418.49800000000005 168.74 418.49800000000005 C 166.06 418.498 163.873 420.668 163.873 423.357 z M 137.914 399.678 C 137.914 402.367 140.1 404.536 142.77999999999997 404.536 C 145.46799999999996 404.536 147.64699999999996 402.367 147.64699999999996 399.678 C 147.64699999999996 396.98199999999997 145.46899999999997 394.804 142.77999999999997 394.804 C 140.099 394.804 137.914 396.981 137.914 399.678 z M 111.953 399.678 C 111.953 402.367 114.13900000000001 404.536 116.819 404.536 C 119.50800000000001 404.536 121.694 402.367 121.694 399.678 C 121.694 396.98199999999997 119.50800000000001 394.804 116.819 394.804 C 114.139 394.804 111.953 396.981 111.953 399.678 z M 85.992 399.678 C 85.992 402.367 88.178 404.536 90.867 404.536 C 93.555 404.536 95.733 402.367 95.733 399.678 C 95.733 396.98199999999997 93.555 394.804 90.867 394.804 C 88.178 394.804 85.992 396.981 85.992 399.678 z M 138.029 422.326 C 137.956 422.65900000000005 137.914 423.00300000000004 137.914 423.357 C 137.914 426.04600000000005 140.1 428.232 142.77999999999997 428.232 C 144.91199999999998 428.232 146.70299999999997 426.84700000000004 147.36099999999996 424.937 C 147.53299999999996 424.44 147.64599999999996 423.914 147.64599999999996 423.357 C 147.64599999999996 420.668 145.46799999999996 418.49800000000005 142.77899999999997 418.49800000000005 C 140.453 418.498 138.504 420.135 138.029 422.326 z M 69.773 541.799 C 69.773 539.111 67.594 536.933 64.90599999999999 536.933 C 62.21799999999999 536.933 60.038999999999994 539.111 60.038999999999994 541.799 C 60.038999999999994 544.4879999999999 62.217999999999996 546.674 64.90599999999999 546.674 C 67.594 546.674 69.773 544.488 69.773 541.799 z M 69.773 518.112 C 69.773 515.4309999999999 67.594 513.246 64.90599999999999 513.246 C 62.21799999999999 513.246 60.038999999999994 515.4309999999999 60.038999999999994 518.112 C 60.038999999999994 520.8 62.217999999999996 522.987 64.90599999999999 522.987 C 67.594 522.987 69.773 520.801 69.773 518.112 z M 69.773 494.426 C 69.773 491.73699999999997 67.594 489.55899999999997 64.90599999999999 489.55899999999997 C 62.21799999999999 489.55899999999997 60.038999999999994 491.73799999999994 60.038999999999994 494.426 C 60.038999999999994 497.114 62.217999999999996 499.292 64.90599999999999 499.292 C 67.594 499.292 69.773 497.114 69.773 494.426 z M 69.773 470.738 C 69.773 468.05 67.594 465.864 64.90599999999999 465.864 C 62.21799999999999 465.864 60.038999999999994 468.051 60.038999999999994 470.738 C 60.038999999999994 473.427 62.217999999999996 475.604 64.90599999999999 475.604 C 67.594 475.604 69.773 473.428 69.773 470.738 z M 95.733 565.494 C 95.733 562.806 93.555 560.62 90.867 560.62 C 88.178 560.62 85.992 562.806 85.992 565.494 C 85.992 568.183 88.178 570.36 90.867 570.36 C 93.555 570.36 95.733 568.183 95.733 565.494 z M 95.733 541.799 C 95.733 539.111 93.555 536.933 90.867 536.933 C 88.178 536.933 85.992 539.111 85.992 541.799 C 85.992 544.4879999999999 88.178 546.674 90.867 546.674 C 93.555 546.674 95.733 544.488 95.733 541.799 z M 95.733 518.112 C 95.733 515.4309999999999 93.555 513.246 90.867 513.246 C 88.178 513.246 85.992 515.4309999999999 85.992 518.112 C 85.992 520.8 88.178 522.987 90.867 522.987 C 93.555 522.987 95.733 520.801 95.733 518.112 z M 95.733 494.426 C 95.733 491.73699999999997 93.555 489.55899999999997 90.867 489.55899999999997 C 88.178 489.55899999999997 85.992 491.73799999999994 85.992 494.426 C 85.992 497.114 88.178 499.292 90.867 499.292 C 93.555 499.292 95.733 497.114 95.733 494.426 z M 95.733 470.738 C 95.733 470.662 95.714 470.59 95.711 470.514 C 95.592 467.932 93.479 465.86400000000003 90.867 465.86400000000003 C 89.744 465.86400000000003 88.721 466.26000000000005 87.896 466.901 C 86.747 467.794 85.992 469.173 85.992 470.738 C 85.992 473.427 88.178 475.604 90.867 475.604 C 93.555 475.604 95.733 473.428 95.733 470.738 z M 121.694 565.494 C 121.694 562.806 119.50800000000001 560.62 116.819 560.62 C 114.139 560.62 111.953 562.806 111.953 565.494 C 111.953 568.183 114.13900000000001 570.36 116.819 570.36 C 119.508 570.36 121.694 568.183 121.694 565.494 z M 121.694 541.799 C 121.694 539.111 119.50800000000001 536.933 116.819 536.933 C 114.139 536.933 111.953 539.111 111.953 541.799 C 111.953 544.4879999999999 114.13900000000001 546.674 116.819 546.674 C 119.508 546.674 121.694 544.488 121.694 541.799 z M 121.694 518.112 C 121.694 515.4309999999999 119.50800000000001 513.246 116.819 513.246 C 114.139 513.246 111.953 515.4309999999999 111.953 518.112 C 111.953 520.8 114.13900000000001 522.987 116.819 522.987 C 119.508 522.987 121.694 520.801 121.694 518.112 z M 121.694 494.426 C 121.694 491.73699999999997 119.50800000000001 489.55899999999997 116.819 489.55899999999997 C 114.139 489.55899999999997 111.953 491.73799999999994 111.953 494.426 C 111.953 497.114 114.13900000000001 499.292 116.819 499.292 C 119.508 499.292 121.694 497.114 121.694 494.426 z M 147.646 565.494 C 147.646 562.806 145.468 560.62 142.779 560.62 C 140.09799999999998 560.62 137.913 562.806 137.913 565.494 C 137.913 568.183 140.09900000000002 570.36 142.779 570.36 C 145.468 570.36 147.646 568.183 147.646 565.494 z M 147.646 541.799 C 147.646 539.111 145.468 536.933 142.779 536.933 C 140.09799999999998 536.933 137.913 539.111 137.913 541.799 C 137.913 544.4879999999999 140.09900000000002 546.674 142.779 546.674 C 145.468 546.674 147.646 544.488 147.646 541.799 z M 147.646 518.112 C 147.646 515.4309999999999 145.468 513.246 142.779 513.246 C 140.09799999999998 513.246 137.913 515.4309999999999 137.913 518.112 C 137.913 520.8 140.09900000000002 522.987 142.779 522.987 C 145.468 522.987 147.646 520.801 147.646 518.112 z M 147.646 494.426 C 147.646 491.73699999999997 145.468 489.55899999999997 142.779 489.55899999999997 C 140.09799999999998 489.55899999999997 137.913 491.73799999999994 137.913 494.426 C 137.913 497.114 140.09900000000002 499.292 142.779 499.292 C 145.468 499.292 147.646 497.114 147.646 494.426 z M 173.607 565.494 C 173.607 562.806 171.437 560.62 168.74099999999999 560.62 C 166.05999999999997 560.62 163.874 562.806 163.874 565.494 C 163.874 568.183 166.06 570.36 168.74099999999999 570.36 C 171.437 570.36 173.607 568.183 173.607 565.494 z M 173.607 541.799 C 173.607 539.111 171.437 536.933 168.74099999999999 536.933 C 166.05999999999997 536.933 163.874 539.111 163.874 541.799 C 163.874 544.4879999999999 166.06 546.674 168.74099999999999 546.674 C 171.437 546.674 173.607 544.488 173.607 541.799 z M 173.607 518.112 C 173.607 515.4309999999999 171.437 513.246 168.74099999999999 513.246 C 166.05999999999997 513.246 163.874 515.4309999999999 163.874 518.112 C 163.874 520.8 166.06 522.987 168.74099999999999 522.987 C 171.437 522.987 173.607 520.801 173.607 518.112 z M 173.607 494.426 C 173.607 491.73699999999997 171.437 489.55899999999997 168.74099999999999 489.55899999999997 C 166.05999999999997 489.55899999999997 163.874 491.73799999999994 163.874 494.426 C 163.874 497.114 166.06 499.292 168.74099999999999 499.292 C 171.437 499.292 173.607 497.114 173.607 494.426 z M 199.567 541.799 C 199.567 539.111 197.389 536.933 194.70000000000002 536.933 C 192.02 536.933 189.834 539.111 189.834 541.799 C 189.834 544.4879999999999 192.02 546.674 194.7 546.674 C 197.39 546.674 199.567 544.488 199.567 541.799 z M 199.567 518.112 C 199.567 515.4309999999999 197.389 513.246 194.70000000000002 513.246 C 192.02 513.246 189.834 515.4309999999999 189.834 518.112 C 189.834 520.8 192.02 522.987 194.7 522.987 C 197.39 522.987 199.567 520.801 199.567 518.112 z M 199.567 494.426 C 199.567 491.73699999999997 197.389 489.55899999999997 194.70000000000002 489.55899999999997 C 192.02 489.55899999999997 189.834 491.73799999999994 189.834 494.426 C 189.834 497.114 192.02 499.292 194.7 499.292 C 197.39 499.292 199.567 497.114 199.567 494.426 z M 199.567 470.738 C 199.567 470.655 199.54600000000002 470.578 199.543 470.496 C 199.41400000000002 467.923 197.306 465.864 194.701 465.864 C 192.021 465.864 189.83499999999998 468.051 189.83499999999998 470.738 C 189.83499999999998 470.887 189.86599999999999 471.028 189.878 471.173 C 190.10199999999998 473.65500000000003 192.16899999999998 475.605 194.701 475.605 C 197.39 475.604 199.567 473.428 199.567 470.738 z M 225.528 518.112 C 225.528 515.4309999999999 223.35 513.246 220.66199999999998 513.246 C 217.97299999999998 513.246 215.795 515.4309999999999 215.795 518.112 C 215.795 520.8 217.97299999999998 522.987 220.66199999999998 522.987 C 223.35 522.987 225.528 520.801 225.528 518.112 z M 225.528 494.426 C 225.528 491.73699999999997 223.35 489.55899999999997 220.66199999999998 489.55899999999997 C 217.97299999999998 489.55899999999997 215.795 491.73799999999994 215.795 494.426 C 215.795 497.114 217.97299999999998 499.292 220.66199999999998 499.292 C 223.35 499.292 225.528 497.114 225.528 494.426 z M 225.366 471.924 C 225.46200000000002 471.542 225.52800000000002 471.15 225.52800000000002 470.739 C 225.52800000000002 468.051 223.35000000000002 465.86499999999995 220.66200000000003 465.86499999999995 C 217.97300000000004 465.86499999999995 215.79500000000004 468.05199999999996 215.79500000000004 470.739 C 215.79500000000004 470.74399999999997 215.79700000000005 470.74899999999997 215.79700000000005 470.753 C 215.80400000000006 473.436 217.97800000000007 475.60499999999996 220.66200000000006 475.60499999999996 C 222.939 475.604 224.835 474.036 225.366 471.924 z M 225.503 446.81 C 225.375 444.236 223.267 442.185 220.66099999999997 442.185 C 218.98199999999997 442.185 217.503 443.034 216.62899999999996 444.326 C 216.10199999999998 445.10400000000004 215.79399999999995 446.04200000000003 215.79399999999995 447.052 C 215.79399999999995 449.74 217.97199999999995 451.91 220.66099999999994 451.91 C 223.34999999999994 451.91 225.52699999999993 449.74 225.52699999999993 447.052 C 225.528 446.97 225.508 446.893 225.503 446.81 z M 551.256 190.039 C 558.818 185.832 564.505 180.636 568.5219999999999 174.875 C 570.3019999999999 172.32 571.751 169.654 572.891 166.914 C 584.165 139.82899999999998 564.9989999999999 105.50199999999998 532.2049999999999 99.63199999999999 C 515.3449999999999 96.61299999999999 492.05799999999994 105.60099999999998 474.92299999999994 120.06199999999998 C 471.3469999999999 123.07999999999998 468.03799999999995 126.33399999999999 465.11199999999997 129.76899999999998 C 451.998 145.16799999999998 446.56199999999995 164.16499999999996 459.10999999999996 181.42299999999997 C 474.147 202.086 532.556 200.442 551.256 190.039 z" stroke-linecap="round" />
</g>
</g>
</g>
<g transform="matrix(0.28 0 0 0.28 253.19 245.08)" id="tiwMrcU4IubwIAM34mvOs"  >
<g style="" vector-effect="non-scaling-stroke"   >
		<g transform="matrix(1 0 0 1 1.76 172.04)" id="wkpg1QrmA69CCV1v0MBMi"  >
<path style="stroke: none; stroke-width: 1; stroke-dasharray: none; stroke-linecap: butt; stroke-dashoffset: 0; stroke-linejoin: miter; stroke-miterlimit: 4; fill: rgb(114,118,122); fill-rule: nonzero; opacity: 1;" vector-effect="non-scaling-stroke"  transform=" translate(-301.76, -472.04)" d="M 369.759 517.104 L 233.758 517.104 L 246.596 472.14200000000005 L 354.762 472.14200000000005 L 369.759 517.104 z M 304.115 458.657 C 312.85200000000003 458.657 319.96000000000004 451.554 319.96000000000004 442.817 C 319.96000000000004 434.071 312.853 426.968 304.115 426.968 C 295.384 426.968 288.262 434.071 288.262 442.817 C 288.262 451.555 295.384 458.657 304.115 458.657 z" stroke-linecap="round" />
</g>
		<g transform="matrix(1 0 0 1 0 0)" id="2b695lCCI9j3chPB-D4ya"  >
<path style="stroke: none; stroke-width: 1; stroke-dasharray: none; stroke-linecap: butt; stroke-dashoffset: 0; stroke-linejoin: miter; stroke-miterlimit: 4; fill: rgb(186,186,186); fill-rule: nonzero; opacity: 1;" vector-effect="non-scaling-stroke"  transform=" translate(-300, -300)" d="M 436.179 534.994 C 436.179 542.9300000000001 429.71299999999997 549.4 421.772 549.4 L 182.995 549.4 C 175.05 549.4 168.59300000000002 542.929 168.59300000000002 534.994 C 168.59300000000002 527.053 175.05 520.587 182.995 520.587 L 421.772 520.587 C 429.713 520.587 436.179 527.053 436.179 534.994 z M 596.512 50.6 L 596.512 468.654 L 3.488 468.654 L 3.488 50.6 L 596.512 50.6 z M 323.055 442.817 C 323.055 432.38 314.562 423.883 304.116 423.883 C 293.676 423.883 285.178 432.38 285.178 442.817 C 285.178 453.26300000000003 293.676 461.747 304.116 461.747 C 314.562 461.747 323.055 453.264 323.055 442.817 z M 564.238 84.535 L 43.983 84.535 L 43.983 414.46799999999996 L 564.2379999999999 414.46799999999996 L 564.2379999999999 84.535 z" stroke-linecap="round" />
</g>
		<g transform="matrix(1 0 0 1 0 0)" id="GOi9i3VBdI7KNwZdD10NL"  >
<path style="stroke: none; stroke-width: 1; stroke-dasharray: none; stroke-linecap: butt; stroke-dashoffset: 0; stroke-linejoin: miter; stroke-miterlimit: 4; fill: rgb(49,77,109); fill-rule: nonzero; opacity: 1;" vector-effect="non-scaling-stroke"  transform=" translate(-300, -300)" d="M 600 47.12 L 0 47.12 L 0 472.141 L 242.973 472.141 L 230.12300000000002 517.1030000000001 L 182.995 517.1030000000001 C 173.135 517.1030000000001 165.1 525.124 165.1 534.994 C 165.1 544.859 173.135 552.88 182.995 552.88 L 421.772 552.88 C 431.642 552.88 439.658 544.859 439.658 534.994 C 439.658 525.124 431.642 517.1030000000001 421.772 517.1030000000001 L 373.425 517.1030000000001 L 358.443 472.1410000000001 L 600 472.1410000000001 L 600 47.12 z M 596.512 468.653 L 3.488 468.653 L 3.488 50.6 L 596.5110000000001 50.6 L 596.5110000000001 468.653 z M 421.771 520.587 C 429.712 520.587 436.178 527.053 436.178 534.994 C 436.178 542.9300000000001 429.712 549.4 421.771 549.4 L 182.995 549.4 C 175.05 549.4 168.59300000000002 542.929 168.59300000000002 534.994 C 168.59300000000002 527.053 175.05 520.587 182.995 520.587 L 421.771 520.587 z M 233.758 517.104 L 246.596 472.14200000000005 L 354.762 472.14200000000005 L 369.759 517.104 L 233.758 517.104 z M 564.238 84.535 L 43.983 84.535 L 43.983 414.46799999999996 L 564.2379999999999 414.46799999999996 L 564.2379999999999 84.535 z M 560.755 410.975 L 47.477 410.975 L 47.477 88.027 L 560.755 88.027 L 560.755 410.975 z M 304.115 423.884 C 293.675 423.884 285.177 432.38100000000003 285.177 442.81800000000004 C 285.177 453.26400000000007 293.675 461.74800000000005 304.115 461.74800000000005 C 314.56100000000004 461.74800000000005 323.05400000000003 453.26500000000004 323.05400000000003 442.81800000000004 C 323.055 432.381 314.562 423.884 304.115 423.884 z M 304.115 458.657 C 295.384 458.657 288.262 451.554 288.262 442.817 C 288.262 434.071 295.384 426.968 304.115 426.968 C 312.85200000000003 426.968 319.96000000000004 434.071 319.96000000000004 442.817 C 319.96 451.555 312.853 458.657 304.115 458.657 z" stroke-linecap="round" />
</g>
</g>
</g>
<g transform="matrix(0.32 0 0 0.32 213.32 210.57)" id="-Zrql8MnYZYDGIoRid46K"  >
<g style="" vector-effect="non-scaling-stroke"   >
		<g transform="matrix(1 0 0 1 0 0)" id="-bsJ9L2WqzV5uLrsI0x6u"  >
<path style="stroke: none; stroke-width: 1; stroke-dasharray: none; stroke-linecap: butt; stroke-dashoffset: 0; stroke-linejoin: miter; stroke-miterlimit: 4; fill: rgb(179,181,179); fill-rule: nonzero; opacity: 1;" vector-effect="non-scaling-stroke"  transform=" translate(-40.05, -40)" d="M 66 39.2 L 42 39.2 L 42 31.300000000000004 L 55.7 31.300000000000004 L 55.7 0 L 24.4 0 L 24.4 31.3 L 38.099999999999994 31.3 L 38.099999999999994 39.2 L 14 39.2 L 14 48.800000000000004 L 0.2 48.800000000000004 L 0.2 80 L 31.5 80 L 31.5 48.7 L 17.9 48.7 L 17.9 43 L 62.1 43 L 62.1 48.7 L 48.6 48.7 L 48.6 80 L 79.9 80 L 79.9 48.7 L 66 48.7 L 66 39.2 z" stroke-linecap="round" />
</g>
		<g transform="matrix(1 0 0 1 0 -10.55)" id="UG5qAV-C9C160aI2fo2MA"  >
<path style="stroke: none; stroke-width: 1; stroke-dasharray: none; stroke-linecap: butt; stroke-dashoffset: 0; stroke-linejoin: miter; stroke-miterlimit: 4; fill: rgb(255,255,255); fill-rule: nonzero; opacity: 1;" vector-effect="non-scaling-stroke"  transform=" translate(-40.05, -29.45)" d="M 51 6.8 L 29 6.8 L 29 3.4 L 51 3.4 L 51 6.8 z M 4.8 55.5 L 26.900000000000002 55.5 L 26.900000000000002 52.1 L 4.8 52.1 L 4.8 55.5 z M 53.2 55.5 L 75.30000000000001 55.5 L 75.30000000000001 55.5 L 75.30000000000001 52.1 L 53.2 52.1 L 53.2 55.5 z" stroke-linecap="round" />
</g>
</g>
</g>
<g transform="matrix(0.39 0 0 0.39 257.22 229.66)" id="tQYGBbQgw6cDBW74RD5hL"  >
<g style="" vector-effect="non-scaling-stroke"   >
		<g transform="matrix(1 0 0 1 0 3.95)" id="wgqDRNBmNl6sbvxScKGIG"  >
<path style="stroke: none; stroke-width: 1; stroke-dasharray: none; stroke-linecap: butt; stroke-dashoffset: 0; stroke-linejoin: miter; stroke-miterlimit: 4; fill: rgb(179,181,179); fill-rule: nonzero; opacity: 1;" vector-effect="non-scaling-stroke"  transform=" translate(-40, -43.95)" d="M 70.1 8.6 L 66.19999999999999 8.6 L 66.19999999999999 10.6 C 66.19999999999999 13.899999999999999 63.499999999999986 16.6 60.19999999999999 16.6 C 56.89999999999999 16.6 54.19999999999999 13.900000000000002 54.19999999999999 10.600000000000001 L 54.19999999999999 8.600000000000001 L 46 8.600000000000001 L 46 10.600000000000001 C 46 13.900000000000002 43.3 16.6 40 16.6 C 36.7 16.6 34 13.900000000000002 34 10.600000000000001 L 34 8.600000000000001 L 25.7 8.600000000000001 L 25.7 10.600000000000001 C 25.7 13.900000000000002 23 16.6 19.7 16.6 C 16.4 16.6 13.7 13.900000000000002 13.7 10.600000000000001 L 13.7 8.600000000000001 L 9.9 8.600000000000001 C 4.4 8.6 0 13.1 0 18.5 L 0 69.4 C 0 74.9 4.4 79.30000000000001 9.9 79.30000000000001 L 70.10000000000001 79.30000000000001 C 75.60000000000001 79.30000000000001 80.00000000000001 74.9 80.00000000000001 69.4 L 80.00000000000001 18.5 C 80 13.1 75.6 8.6 70.1 8.6 z" stroke-linecap="round" />
</g>
		<g transform="matrix(1 0 0 1 0 8.9)" id="2gD8-Nq2vj-Ilb2-PPOAw"  >
<path style="stroke: none; stroke-width: 1; stroke-dasharray: none; stroke-linecap: butt; stroke-dashoffset: 0; stroke-linejoin: miter; stroke-miterlimit: 4; fill: rgb(255,255,255); fill-rule: nonzero; opacity: 1;" vector-effect="non-scaling-stroke"  transform=" translate(-40, -48.9)" d="M 70.1 24.1 L 9.9 24.1 C 7.5 24.1 5.6000000000000005 26 5.6000000000000005 28.400000000000002 L 5.6000000000000005 69.4 C 5.6000000000000005 71.80000000000001 7.5 73.7 9.9 73.7 L 70.10000000000001 73.7 C 72.50000000000001 73.7 74.4 71.8 74.4 69.4 L 74.4 69.4 L 74.4 28.400000000000006 C 74.4 26 72.5 24.1 70.1 24.1 z" stroke-linecap="round" />
</g>
		<g transform="matrix(1 0 0 1 0 8.9)" id="PGIcJ3IjoW8WBBFcqmnca"  >
<path style="stroke: none; stroke-width: 1; stroke-dasharray: none; stroke-linecap: butt; stroke-dashoffset: 0; stroke-linejoin: miter; stroke-miterlimit: 4; fill: rgb(179,181,179); fill-rule: nonzero; opacity: 1;" vector-effect="non-scaling-stroke"  transform=" translate(-40, -48.9)" d="M 22.1 61.5 L 22.1 65.6 C 22.1 67.5 20.5 69.1 18.6 69.1 L 14.500000000000002 69.1 C 12.600000000000001 69.1 11.000000000000002 67.5 11.000000000000002 65.6 L 11.000000000000002 61.49999999999999 C 11.000000000000002 59.599999999999994 12.600000000000001 57.99999999999999 14.500000000000002 57.99999999999999 L 18.6 57.99999999999999 C 20.5 58 22.1 59.6 22.1 61.5 z M 18.6 43.4 L 14.500000000000002 43.4 C 12.600000000000001 43.4 11.000000000000002 45 11.000000000000002 46.9 L 11.000000000000002 51 C 11.000000000000002 52.9 12.600000000000001 54.5 14.500000000000002 54.5 L 18.6 54.5 C 20.5 54.5 22.1 52.9 22.1 51 L 22.1 46.9 C 22.1 44.9 20.5 43.4 18.6 43.4 z M 34.2 43.4 L 30.1 43.4 C 28.200000000000003 43.4 26.6 45 26.6 46.9 L 26.6 51 C 26.6 52.9 28.200000000000003 54.5 30.1 54.5 L 34.2 54.5 C 36.1 54.5 37.7 52.9 37.7 51 L 37.7 46.9 C 37.7 44.9 36.1 43.4 34.2 43.4 z M 34.2 58 L 30.1 58 C 28.200000000000003 58 26.6 59.6 26.6 61.5 L 26.6 65.6 C 26.6 67.5 28.200000000000003 69.1 30.1 69.1 L 34.2 69.1 C 36.1 69.1 37.7 67.5 37.7 65.6 L 37.7 61.49999999999999 C 37.7 59.6 36.1 58 34.2 58 z M 34.2 28.7 L 30.1 28.7 C 28.200000000000003 28.7 26.6 30.3 26.6 32.2 L 26.6 36.300000000000004 C 26.6 38.2 28.200000000000003 39.800000000000004 30.1 39.800000000000004 L 34.2 39.800000000000004 C 36.1 39.800000000000004 37.7 38.2 37.7 36.300000000000004 L 37.7 32.2 C 37.7 30.3 36.1 28.7 34.2 28.7 z M 65.5 43.4 L 61.4 43.4 C 59.5 43.4 57.9 45 57.9 46.9 L 57.9 51 C 57.9 52.9 59.5 54.5 61.4 54.5 L 65.5 54.5 C 67.4 54.5 69 52.9 69 51 L 69 46.9 C 68.9 44.9 67.4 43.4 65.5 43.4 z M 65.5 28.7 L 61.4 28.7 C 59.5 28.7 57.9 30.3 57.9 32.2 L 57.9 36.300000000000004 C 57.9 38.2 59.5 39.800000000000004 61.4 39.800000000000004 L 65.5 39.800000000000004 C 67.4 39.800000000000004 69 38.2 69 36.300000000000004 L 69 32.2 C 68.9 30.3 67.4 28.7 65.5 28.7 z M 49.8 58 L 45.699999999999996 58 C 43.8 58 42.199999999999996 59.6 42.199999999999996 61.5 L 42.199999999999996 65.6 C 42.199999999999996 67.5 43.8 69.1 45.699999999999996 69.1 L 49.8 69.1 C 51.699999999999996 69.1 53.3 67.5 53.3 65.6 L 53.3 61.49999999999999 C 53.3 59.6 51.8 58 49.8 58 z M 49.8 43.4 L 45.699999999999996 43.4 C 43.8 43.4 42.199999999999996 45 42.199999999999996 46.9 L 42.199999999999996 51 C 42.199999999999996 52.9 43.8 54.5 45.699999999999996 54.5 L 49.8 54.5 C 51.699999999999996 54.5 53.3 52.9 53.3 51 L 53.3 46.9 C 53.3 44.9 51.8 43.4 49.8 43.4 z M 49.8 28.7 L 45.699999999999996 28.7 C 43.8 28.7 42.199999999999996 30.3 42.199999999999996 32.2 L 42.199999999999996 36.300000000000004 C 42.199999999999996 38.2 43.8 39.800000000000004 45.699999999999996 39.800000000000004 L 49.8 39.800000000000004 C 51.699999999999996 39.800000000000004 53.3 38.2 53.3 36.300000000000004 L 53.3 32.2 C 53.3 30.3 51.8 28.7 49.8 28.7 z M 65.5 58 L 61.4 58 C 59.5 58 57.9 59.6 57.9 61.5 L 57.9 65.6 C 57.9 67.5 59.5 69.1 61.4 69.1 L 65.5 69.1 C 67.4 69.1 69 67.5 69 65.6 L 69 61.49999999999999 C 68.9 59.6 67.4 58 65.5 58 z" stroke-linecap="round" />
</g>
		<g transform="matrix(1 0 0 1 0.05 -32.6)" id="WmejS4d_3VzheC0aW23Us"  >
<path style="stroke: none; stroke-width: 1; stroke-dasharray: none; stroke-linecap: butt; stroke-dashoffset: 0; stroke-linejoin: miter; stroke-miterlimit: 4; fill: rgb(179,181,179); fill-rule: nonzero; opacity: 1;" vector-effect="non-scaling-stroke"  transform=" translate(-40.05, -7.4)" d="M 56.8 10.6 L 56.8 4.2 C 56.8 2.3000000000000003 58.3 0.7000000000000002 60.3 0.7000000000000002 C 62.3 0.7000000000000002 63.8 2.2 63.8 4.2 L 63.8 10.600000000000001 C 63.8 12.500000000000002 62.3 14.100000000000001 60.3 14.100000000000001 C 58.3 14.100000000000001 56.8 12.5 56.8 10.6 z M 40 14.1 C 41.9 14.1 43.5 12.6 43.5 10.6 L 43.5 4.2 C 43.5 2.3000000000000003 42 0.7000000000000002 40 0.7000000000000002 C 38 0.7000000000000002 36.5 2.2 36.5 4.2 L 36.5 10.600000000000001 C 36.5 12.5 38.1 14.1 40 14.1 z M 19.8 14.1 C 21.7 14.1 23.3 12.6 23.3 10.6 L 23.3 4.2 C 23.3 2.3000000000000003 21.8 0.7000000000000002 19.8 0.7000000000000002 C 17.8 0.7000000000000002 16.3 2.2 16.3 4.2 L 16.3 10.600000000000001 C 16.3 12.5 17.8 14.1 19.8 14.1 z" stroke-linecap="round" />
</g>
</g>
</g>
<g transform="matrix(0.35 0 0 0.35 213.32 253.71)" id="PVSlEN-O5I5QK-dSfOHNe"  >
<g style="" vector-effect="non-scaling-stroke"   >
		<g transform="matrix(1 0 0 1 0.01 -0.02)" id="HFtuu0bRNR7aOkL7zBPok"  >
<path style="stroke: none; stroke-width: 1; stroke-dasharray: none; stroke-linecap: butt; stroke-dashoffset: 0; stroke-linejoin: miter; stroke-miterlimit: 4; fill: rgb(179,181,179); fill-rule: nonzero; opacity: 1;" vector-effect="non-scaling-stroke"  transform=" translate(-40.01, -39.98)" d="M 34.4 62.8 C 33.5 63.699999999999996 32 63.8 31.2 62.9 L 30.2 61.9 C 30.2 62 29.5 62.9 29.099999999999998 63.199999999999996 L 14.8 77.5 C 12.8 79.5 9.700000000000001 79.6 7.9 77.7 L 2.3000000000000007 72.10000000000001 C 0.5000000000000007 70.30000000000001 0.6000000000000008 67.2 2.500000000000001 65.2 L 16.7 51 C 17.099999999999998 50.6 18 50 18 49.9 L 17 48.9 C 16.1 48 16.2 46.6 17.1 45.699999999999996 C 18.000000000000004 44.79999999999999 19.5 44.8 20.3 45.599999999999994 L 25.700000000000003 50.99999999999999 L 61 15.4 L 62.9 9.9 L 76 0.9000000000000004 L 79 3.9000000000000004 L 70 17 L 64.6 19 L 29 54.2 L 34.4 59.6 C 35.3 60.5 35.3 61.9 34.4 62.8 z" stroke-linecap="round" />
</g>
		<g transform="matrix(1 0 0 1 0 0)" id="MkN-VTHTz1JqruZNC1Xss"  >
<path style="stroke: none; stroke-width: 1; stroke-dasharray: none; stroke-linecap: butt; stroke-dashoffset: 0; stroke-linejoin: miter; stroke-miterlimit: 4; fill: rgb(179,181,179); fill-rule: nonzero; opacity: 1;" vector-effect="non-scaling-stroke"  transform=" translate(-40, -40)" d="M 77.4 56.5 C 81 63.1 79.80000000000001 71.4 79.80000000000001 71.4 L 70.9 59.7 L 61.800000000000004 61.800000000000004 L 59.7 70.9 L 71.4 79.80000000000001 C 71.4 79.80000000000001 63.10000000000001 81.00000000000001 56.50000000000001 77.4 C 49.10000000000001 73.4 53.10000000000001 66.80000000000001 51.10000000000001 63.2 C 32.70000000000001 37.2 16.80000000000001 28.900000000000006 16.80000000000001 28.900000000000006 C 16.80000000000001 28.900000000000006 6.600000000000012 30.900000000000006 2.600000000000012 23.500000000000007 C -1 16.9 0.2 8.6 0.2 8.6 L 9.1 20.299999999999997 L 18.2 18.199999999999996 L 20.3 9.099999999999996 L 8.6 0.2 C 8.6 0.2 16.9 -1 23.5 2.6 C 30.9 6.6 28.9 16.8 28.9 16.8 C 28.9 16.8 37.599999999999994 33.5 63.199999999999996 51.099999999999994 C 66.6 53.5 73.4 49.1 77.4 56.5 z" stroke-linecap="round" />
</g>
</g>
</g>
<g transform="matrix(0.38 0 0 0.38 298.63 253.71)" id="YAuS9QSU15CXLq5q1JERL"  >
<g style="" vector-effect="non-scaling-stroke"   >
		<g transform="matrix(1 0 0 1 21.55 -22.05)" id="zK43Xn4L-la-RPdN8EcaH"  >
<path style="stroke: none; stroke-width: 1; stroke-dasharray: none; stroke-linecap: butt; stroke-dashoffset: 0; stroke-linejoin: miter; stroke-miterlimit: 4; fill: rgb(179,181,179); fill-rule: nonzero; opacity: 1;" vector-effect="non-scaling-stroke"  transform=" translate(-61.5, -17.95)" d="M 79.4 35.8 C 79.4 35.8 79.4 35.8 79.4 35.8 L 43.60000000000001 35.9 L 43.60000000000001 0 C 63.4 0 79.4 16 79.4 35.8 z" stroke-linecap="round" />
</g>
		<g transform="matrix(1 0 0 1 -3.65 4.25)" id="A1UVhgRlRtU9eUSNjclSu"  >
<path style="stroke: none; stroke-width: 1; stroke-dasharray: none; stroke-linecap: butt; stroke-dashoffset: 0; stroke-linejoin: miter; stroke-miterlimit: 4; fill: rgb(179,181,179); fill-rule: nonzero; opacity: 1;" vector-effect="non-scaling-stroke"  transform=" translate(-36.3, -44.25)" d="M 36.3 8.5 C 16.499999999999996 8.5 0.5 24.5 0.5 44.3 C 0.6 64 16.6 80 36.3 80 C 56 80 72 64 72.1 44.3 L 36.3 44.3 L 36.3 8.5 z" stroke-linecap="round" />
</g>
</g>
</g>
<g transform="matrix(0.33 0 0 0.33 297.23 209.7)" id="bzHz-BXbseVSZL4jfPVxE"  >
<path style="stroke: none; stroke-width: 1; stroke-dasharray: none; stroke-linecap: butt; stroke-dashoffset: 0; stroke-linejoin: miter; stroke-miterlimit: 4; fill: rgb(179,181,179); fill-rule: nonzero; opacity: 1;" vector-effect="non-scaling-stroke"  transform=" translate(-40, -40)" d="M 64.002 38.692 L 41.308 38.692 L 41.308 25.094 C 48.602 24.901 54.766 23.12 59.564 21.027 C 62.337 26.437 63.823 32.342 64.002 38.692 z M 41.308 2.16 L 41.308 22.477 C 47.964 22.293 53.663 20.721 58.288 18.721 C 56.525999999999996 15.769 54.363 12.974 51.797999999999995 10.345 C 47.724 6.17 43.608 3.488 41.308 2.16 z M 38.692 38.692 L 38.692 25.094 C 31.398 24.901 25.234 23.12 20.436 21.027 C 17.663 26.437 16.177 32.342 15.998000000000001 38.693 L 38.692 38.693 z M 28.202 10.345 C 25.635 12.975000000000001 23.470000000000002 15.772 21.708000000000002 18.727 C 26.195 20.656 31.929000000000002 22.287 38.69200000000001 22.476 L 38.69200000000001 2.16 C 36.392 3.488 32.276 6.17 28.202 10.345 z M 66.62 41.308 C 66.452 47.484 65.08800000000001 53.351 62.55800000000001 58.763 C 62.35300000000001 59.202999999999996 62.13700000000001 59.638999999999996 61.916000000000004 60.073 C 63.132000000000005 60.682 64.23700000000001 61.297 65.22500000000001 61.892 C 67.44500000000001 63.229000000000006 69.266 64.562 70.676 65.706 C 76.248 59.063 79.702 50.585 80 41.309000000000005 L 66.62 41.309000000000005 z M 13.38 38.692 C 13.549000000000001 32.516 14.913 26.649 17.442 21.237000000000002 C 17.648 20.797 17.863 20.361 18.084 19.927000000000003 C 16.868 19.318000000000005 15.763 18.703000000000003 14.774999999999999 18.108000000000004 C 12.554999999999998 16.771000000000004 10.733999999999998 15.438000000000004 9.323999999999998 14.294000000000004 C 3.752 20.938 0.298 29.416 0 38.692 L 13.38 38.692 z M 38.692 41.308 L 15.998 41.308 C 16.177 47.658 17.663 53.563 20.436 58.973 C 25.234 56.879999999999995 31.399 55.099 38.692 54.906 L 38.692 41.308 z M 18.084 60.073 C 17.863 59.639 17.647 59.203 17.442 58.763 C 14.912 53.349999999999994 13.548 47.483999999999995 13.379999999999999 41.308 L 0 41.308 C 0.298 50.584 3.752 59.062 9.324 65.705 C 10.734 64.56099999999999 12.555 63.228 14.774999999999999 61.891 C 15.763 61.297 16.868 60.681 18.084 60.073 z M 26.4 71.554 C 23.624 68.721 21.262999999999998 65.646 19.346999999999998 62.38 C 15.804999999999998 64.151 13.026999999999997 66.099 11.077999999999998 67.665 C 17.726999999999997 74.614 26.854999999999997 79.17 37.041 79.914 C 34.56 78.456 30.496 75.735 26.4 71.554 z M 16.212 15.92 C 17.146 16.479 18.19 17.059 19.34 17.631 C 21.257 14.361 23.621 11.283000000000001 26.4 8.446 C 30.496 4.266 34.56 1.5439999999999996 37.041 0.0860000000000003 C 26.853 0.83 17.723 5.388 11.074 12.34 C 12.408 13.416 14.129 14.671 16.212 15.92 z M 63.788 64.08 C 62.854 63.521 61.809999999999995 62.940999999999995 60.66 62.369 C 58.742999999999995 65.639 56.379 68.717 53.599999999999994 71.554 C 49.50399999999999 75.73400000000001 45.44 78.456 42.958999999999996 79.914 C 53.147999999999996 79.169 62.27799999999999 74.611 68.92699999999999 67.66 C 67.592 66.584 65.871 65.329 63.788 64.08 z M 53.6 8.446 C 56.376000000000005 11.279 58.737 14.354 60.653 17.619999999999997 C 64.195 15.848999999999997 66.973 13.900999999999998 68.92099999999999 12.334999999999997 C 62.273 5.386 53.145 0.83 42.959 0.085 C 45.44 1.544 49.504 4.266 53.6 8.446 z M 41.308 41.308 L 41.308 54.906 C 48.602 55.099 54.766 56.879999999999995 59.564 58.973 C 62.337 53.563 63.823 47.658 64.002 41.308 L 41.308 41.308 z M 51.798 69.655 C 54.365 67.025 56.53 64.22800000000001 58.292 61.273 C 53.805 59.344 48.071 57.713 41.308 57.524 L 41.308 77.84 C 43.608 76.512 47.724 73.83 51.798 69.655 z M 65.224 18.108 C 64.236 18.703 63.131 19.318 61.915000000000006 19.927 C 62.136 20.361 62.352000000000004 20.797 62.55700000000001 21.237 C 65.087 26.65 66.45100000000001 32.516 66.61900000000001 38.69199999999999 L 80 38.69199999999999 C 79.702 29.415999999999993 76.248 20.93799999999999 70.676 14.294999999999995 C 69.266 15.438 67.445 16.771 65.224 18.108 z M 38.692 77.84 L 38.692 57.523 C 32.036 57.707 26.337 59.279 21.712 61.279 C 23.474 64.23100000000001 25.637 67.02600000000001 28.201999999999998 69.655 C 32.276 73.83 36.392 76.512 38.692 77.84 z" stroke-linecap="round" />
</g>
</svg>